<svg id="visual" viewBox="0 0 900 600" width="900" height="600" xmlns="http://www.w3.org/2000/svg" xmlns:xlink="http://www.w3.org/1999/xlink" version="1.1"><path d="M0 133L11.5 157C23 181 46 229 69 218C92 207 115 137 138.2 142C161.3 147 184.7 227 207.8 238C231 249 254 191 277 175C300 159 323 185 346 195C369 205 392 199 415.2 213C438.3 227 461.7 261 484.8 249C508 237 531 179 554 146C577 113 600 105 623 127C646 149 669 201 692.2 194C715.3 187 738.7 121 761.8 102C785 83 808 111 831 111C854 111 877 83 888.5 69L900 55L900 0L888.5 0C877 0 854 0 831 0C808 0 785 0 761.8 0C738.7 0 715.3 0 692.2 0C669 0 646 0 623 0C600 0 577 0 554 0C531 0 508 0 484.8 0C461.7 0 438.3 0 415.2 0C392 0 369 0 346 0C323 0 300 0 277 0C254 0 231 0 207.8 0C184.7 0 161.3 0 138.2 0C115 0 92 0 69 0C46 0 23 0 11.5 0L0 0Z" fill="#1a1a1a"></path><path d="M0 217L11.5 238C23 259 46 301 69 286C92 271 115 199 138.2 200C161.3 201 184.7 275 207.8 283C231 291 254 233 277 228C300 223 323 271 346 281C369 291 392 263 415.2 269C438.3 275 461.7 315 484.8 316C508 317 531 279 554 243C577 207 600 173 623 183C646 193 669 247 692.2 257C715.3 267 738.7 233 761.8 230C785 227 808 255 831 243C854 231 877 179 888.5 153L900 127L900 53L888.5 67C877 81 854 109 831 109C808 109 785 81 761.8 100C738.7 119 715.3 185 692.2 192C669 199 646 147 623 125C600 103 577 111 554 144C531 177 508 235 484.8 247C461.7 259 438.3 225 415.2 211C392 197 369 203 346 193C323 183 300 157 277 173C254 189 231 247 207.8 236C184.7 225 161.3 145 138.2 140C115 135 92 205 69 216C46 227 23 179 11.5 155L0 131Z" fill="#2a1b3d"></path><path d="M0 433L11.5 436C23 439 46 445 69 438C92 431 115 411 138.2 419C161.3 427 184.7 463 207.8 474C231 485 254 471 277 459C300 447 323 437 346 445C369 453 392 479 415.2 483C438.3 487 461.7 469 484.8 456C508 443 531 435 554 432C577 429 600 431 623 431C646 431 669 429 692.2 438C715.3 447 738.7 467 761.8 462C785 457 808 427 831 413C854 399 877 401 888.5 402L900 403L900 125L888.5 151C877 177 854 229 831 241C808 253 785 225 761.8 228C738.7 231 715.3 265 692.2 255C669 245 646 191 623 181C600 171 577 205 554 241C531 277 508 315 484.8 314C461.7 313 438.3 273 415.2 267C392 261 369 289 346 279C323 269 300 221 277 226C254 231 231 289 207.8 281C184.7 273 161.3 199 138.2 198C115 197 92 269 69 284C46 299 23 257 11.5 236L0 215Z" fill="#371962"></path><path d="M0 457L11.5 467C23 477 46 497 69 499C92 501 115 485 138.2 495C161.3 505 184.7 541 207.8 559C231 577 254 577 277 571C300 565 323 553 346 545C369 537 392 533 415.2 533C438.3 533 461.7 537 484.8 536C508 535 531 529 554 531C577 533 600 543 623 545C646 547 669 541 692.2 539C715.3 537 738.7 539 761.8 526C785 513 808 485 831 480C854 475 877 493 888.5 502L900 511L900 401L888.5 400C877 399 854 397 831 411C808 425 785 455 761.8 460C738.7 465 715.3 445 692.2 436C669 427 646 429 623 429C600 429 577 427 554 430C531 433 508 441 484.8 454C461.7 467 438.3 485 415.2 481C392 477 369 451 346 443C323 435 300 445 277 457C254 469 231 483 207.8 472C184.7 461 161.3 425 138.2 417C115 409 92 429 69 436C46 443 23 437 11.5 434L0 431Z" fill="#41128a"></path><path d="M0 601L11.5 601C23 601 46 601 69 601C92 601 115 601 138.2 601C161.3 601 184.7 601 207.8 601C231 601 254 601 277 601C300 601 323 601 346 601C369 601 392 601 415.2 601C438.3 601 461.7 601 484.8 601C508 601 531 601 554 601C577 601 600 601 623 601C646 601 669 601 692.2 601C715.3 601 738.7 601 761.8 601C785 601 808 601 831 601C854 601 877 601 888.5 601L900 601L900 509L888.5 500C877 491 854 473 831 478C808 483 785 511 761.8 524C738.7 537 715.3 535 692.2 537C669 539 646 545 623 543C600 541 577 531 554 529C531 527 508 533 484.8 534C461.7 535 438.3 531 415.2 531C392 531 369 535 346 543C323 551 300 563 277 569C254 575 231 575 207.8 557C184.7 539 161.3 503 138.2 493C115 483 92 499 69 497C46 495 23 475 11.5 465L0 455Z" fill="#4700b4"></path></svg>